<svg width="49" height="78" viewBox="0 0 49 78" fill="none" xmlns="http://www.w3.org/2000/svg">
<path d="M44.5067 23.1704C43.59 24.0905 42.1078 24.0905 41.195 23.1704L32.5746 14.481V43.3172C32.5746 44.6226 31.5292 45.6763 30.2342 45.6763C28.9392 45.6763 27.8938 44.6226 27.8938 43.3172V35.4024C27.492 35.1783 27.0395 34.9345 26.5403 34.675C25.7562 34.27 24.824 33.8965 23.7513 33.5583C22.6747 33.2202 21.4694 33.0511 20.1276 33.0511C18.8794 33.0511 17.7911 33.2202 16.8666 33.5583C15.9422 33.8965 15.1816 34.3447 14.5809 34.903C13.9763 35.4614 13.5277 36.1258 13.2273 36.8965C12.927 37.6632 12.7749 38.481 12.7749 39.3421C12.7749 40.6003 13.0635 41.6855 13.6447 42.5937C14.222 43.502 14.9904 44.3041 15.95 45.004C16.9095 45.7038 18.0017 46.3447 19.2265 46.9266C20.4513 47.5085 21.6995 48.0983 22.9712 48.692C24.2428 49.2857 25.491 49.9384 26.7158 50.6501C27.9406 51.3578 29.0328 52.1992 29.9923 53.1665C30.9519 54.1337 31.7242 55.2739 32.3171 56.5911C32.9061 57.9083 33.1987 59.4614 33.1987 61.2582C33.1987 63.3775 32.8125 65.2648 32.0363 66.9201C31.2639 68.5754 30.1874 69.979 28.8143 71.1311C27.4374 72.2831 25.8186 73.152 23.958 73.734C22.0974 74.3159 20.0925 74.6068 17.9432 74.6068C16.4415 74.6068 15.0489 74.481 13.7656 74.2254C12.4823 73.9659 11.3355 73.6514 10.333 73.2818C9.32668 72.9083 8.48024 72.523 7.80152 72.1258C7.11891 71.7327 6.64303 71.3906 6.37779 71.1114C6.11254 70.8323 5.91751 70.4784 5.78879 70.0459C5.66397 69.6173 5.59766 69.0393 5.59766 68.3159C5.59766 67.8047 5.62106 67.3801 5.66787 67.042C5.71468 66.7038 5.78489 66.4286 5.8746 66.2202C5.96822 66.0118 6.08524 65.8663 6.22176 65.7838C6.36218 65.7012 6.52211 65.6619 6.70934 65.6619C7.0331 65.6619 7.48947 65.8585 8.07847 66.2556C8.66747 66.6527 9.4242 67.0813 10.3487 67.5492C11.2731 68.0131 12.3887 68.4496 13.6954 68.8585C15.0021 69.2674 16.5078 69.4718 18.2202 69.4718C19.5152 69.4718 20.701 69.2949 21.7737 68.945C22.8502 68.595 23.7747 68.0996 24.547 67.4587C25.3233 66.8218 25.9162 66.0354 26.3335 65.0996C26.7509 64.1678 26.9576 63.1101 26.9576 61.9227C26.9576 60.6409 26.669 59.5439 26.0917 58.6357C25.5144 57.7274 24.7499 56.9292 23.802 56.2412C22.8541 55.5531 21.7737 54.924 20.5606 54.3539C19.3475 53.7838 18.1031 53.2019 16.8315 52.6042C15.5599 52.0105 14.3234 51.3539 13.122 50.6304C11.9206 49.9109 10.844 49.0577 9.90007 48.0787C8.94832 47.0996 8.17989 45.9555 7.59089 44.6383C7.00189 43.3211 6.70934 41.7405 6.70934 39.9004C6.70934 38.0603 7.0487 36.3303 7.73131 34.8519C8.41393 33.3696 9.36179 32.1311 10.5749 31.1285C11.788 30.1258 13.2312 29.3631 14.9085 28.8401C16.5858 28.3133 18.3918 28.0538 20.3343 28.0538C21.329 28.0538 22.3276 28.1403 23.3339 28.3133C24.3403 28.4902 25.2881 28.7222 26.1775 29.0131C26.7977 29.2176 27.3711 29.4378 27.8938 29.6737V3.09045L44.5067 19.8323C45.4194 20.7523 45.4194 22.2464 44.5067 23.1704Z" fill="#164874"/>
</svg>
