<svg width="163" height="78" viewBox="0 0 163 78" fill="none" xmlns="http://www.w3.org/2000/svg">
<path d="M44.5067 23.1704C43.59 24.0905 42.1078 24.0905 41.195 23.1704L32.5746 14.481V43.3172C32.5746 44.6226 31.5292 45.6763 30.2342 45.6763C28.9392 45.6763 27.8938 44.6226 27.8938 43.3172V35.4024C27.492 35.1783 27.0395 34.9345 26.5403 34.675C25.7562 34.27 24.824 33.8965 23.7513 33.5583C22.6747 33.2202 21.4694 33.0511 20.1276 33.0511C18.8794 33.0511 17.7911 33.2202 16.8666 33.5583C15.9422 33.8965 15.1816 34.3447 14.5809 34.903C13.9763 35.4614 13.5277 36.1258 13.2273 36.8965C12.927 37.6632 12.7749 38.481 12.7749 39.3421C12.7749 40.6003 13.0635 41.6855 13.6447 42.5937C14.222 43.502 14.9904 44.3041 15.95 45.004C16.9095 45.7038 18.0017 46.3447 19.2265 46.9266C20.4513 47.5085 21.6995 48.0983 22.9712 48.692C24.2428 49.2857 25.491 49.9384 26.7158 50.6501C27.9406 51.3578 29.0328 52.1992 29.9923 53.1665C30.9519 54.1337 31.7242 55.2739 32.3171 56.5911C32.9061 57.9083 33.1987 59.4614 33.1987 61.2582C33.1987 63.3775 32.8125 65.2648 32.0363 66.9201C31.2639 68.5754 30.1874 69.979 28.8143 71.1311C27.4374 72.2831 25.8186 73.152 23.958 73.734C22.0974 74.3159 20.0925 74.6068 17.9432 74.6068C16.4415 74.6068 15.0489 74.481 13.7656 74.2254C12.4823 73.9659 11.3355 73.6514 10.333 73.2818C9.32668 72.9083 8.48024 72.523 7.80152 72.1258C7.11891 71.7327 6.64303 71.3906 6.37779 71.1114C6.11254 70.8323 5.91751 70.4784 5.78879 70.0459C5.66397 69.6173 5.59766 69.0393 5.59766 68.3159C5.59766 67.8047 5.62106 67.3801 5.66787 67.042C5.71468 66.7038 5.78489 66.4286 5.8746 66.2202C5.96822 66.0118 6.08524 65.8663 6.22176 65.7838C6.36218 65.7012 6.52211 65.6619 6.70934 65.6619C7.0331 65.6619 7.48947 65.8585 8.07847 66.2556C8.66747 66.6527 9.4242 67.0813 10.3487 67.5492C11.2731 68.0131 12.3887 68.4496 13.6954 68.8585C15.0021 69.2674 16.5078 69.4718 18.2202 69.4718C19.5152 69.4718 20.701 69.2949 21.7737 68.945C22.8502 68.595 23.7747 68.0996 24.547 67.4587C25.3233 66.8218 25.9162 66.0354 26.3335 65.0996C26.7509 64.1678 26.9576 63.1101 26.9576 61.9227C26.9576 60.6409 26.669 59.5439 26.0917 58.6357C25.5144 57.7274 24.7499 56.9292 23.802 56.2412C22.8541 55.5531 21.7737 54.924 20.5606 54.3539C19.3475 53.7838 18.1031 53.2019 16.8315 52.6042C15.5599 52.0105 14.3234 51.3539 13.122 50.6304C11.9206 49.9109 10.844 49.0577 9.90007 48.0787C8.94832 47.0996 8.17989 45.9555 7.59089 44.6383C7.00189 43.3211 6.70934 41.7405 6.70934 39.9004C6.70934 38.0603 7.0487 36.3303 7.73131 34.8519C8.41393 33.3696 9.36179 32.1311 10.5749 31.1285C11.788 30.1258 13.2312 29.3631 14.9085 28.8401C16.5858 28.3133 18.3918 28.0538 20.3343 28.0538C21.329 28.0538 22.3276 28.1403 23.3339 28.3133C24.3403 28.4902 25.2881 28.7222 26.1775 29.0131C26.7977 29.2176 27.3711 29.4378 27.8938 29.6737V3.09045L44.5067 19.8323C45.4194 20.7523 45.4194 22.2464 44.5067 23.1704Z" fill="#164874"/>
<path d="M59.6406 49.4531C59.6406 50.25 59.4922 50.9492 59.1953 51.5508C58.8984 52.1523 58.4961 52.6562 57.9883 53.0625C57.4805 53.4609 56.8867 53.7617 56.207 53.9648C55.5273 54.168 54.8008 54.2695 54.0273 54.2695C53.5039 54.2695 53.0156 54.2266 52.5625 54.1406C52.1172 54.0547 51.7227 53.9531 51.3789 53.8359C51.0352 53.7109 50.7461 53.582 50.5117 53.4492C50.2852 53.3164 50.1211 53.1992 50.0195 53.0977C49.918 52.9961 49.8438 52.8516 49.7969 52.6641C49.7578 52.4688 49.7383 52.1914 49.7383 51.832C49.7383 51.5898 49.7461 51.3867 49.7617 51.2227C49.7773 51.0586 49.8008 50.9258 49.832 50.8242C49.8711 50.7227 49.918 50.6523 49.9727 50.6133C50.0352 50.5664 50.1055 50.543 50.1836 50.543C50.293 50.543 50.4453 50.6094 50.6406 50.7422C50.8438 50.8672 51.1016 51.0078 51.4141 51.1641C51.7266 51.3203 52.0977 51.4648 52.5273 51.5977C52.9648 51.7227 53.4688 51.7852 54.0391 51.7852C54.4141 51.7852 54.75 51.7422 55.0469 51.6562C55.3438 51.5625 55.5938 51.4336 55.7969 51.2695C56.0078 51.1055 56.168 50.9023 56.2773 50.6602C56.3867 50.418 56.4414 50.1484 56.4414 49.8516C56.4414 49.5078 56.3477 49.2148 56.1602 48.9727C55.9727 48.7227 55.7266 48.5039 55.4219 48.3164C55.125 48.1211 54.7852 47.9414 54.4023 47.7773C54.0195 47.6055 53.625 47.4258 53.2188 47.2383C52.8125 47.0508 52.418 46.8398 52.0352 46.6055C51.6523 46.3633 51.3086 46.0781 51.0039 45.75C50.707 45.4141 50.4648 45.0195 50.2773 44.5664C50.0898 44.1133 49.9961 43.5703 49.9961 42.9375C49.9961 42.2109 50.1289 41.5742 50.3945 41.0273C50.668 40.4727 51.0312 40.0156 51.4844 39.6562C51.9453 39.2891 52.4844 39.0156 53.1016 38.8359C53.7266 38.6562 54.3867 38.5664 55.082 38.5664C55.4414 38.5664 55.8008 38.5938 56.1602 38.6484C56.5195 38.7031 56.8555 38.7773 57.168 38.8711C57.4805 38.9648 57.7578 39.0703 58 39.1875C58.2422 39.3047 58.4023 39.4023 58.4805 39.4805C58.5586 39.5586 58.6094 39.625 58.6328 39.6797C58.6641 39.7344 58.6875 39.8086 58.7031 39.9023C58.7266 39.9883 58.7422 40.1016 58.75 40.2422C58.7578 40.375 58.7617 40.543 58.7617 40.7461C58.7617 40.9727 58.7539 41.1641 58.7383 41.3203C58.7305 41.4766 58.7109 41.6055 58.6797 41.707C58.6562 41.8086 58.6172 41.8828 58.5625 41.9297C58.5156 41.9766 58.4492 42 58.3633 42C58.2773 42 58.1406 41.9453 57.9531 41.8359C57.7656 41.7266 57.5352 41.6094 57.2617 41.4844C56.9883 41.3516 56.6719 41.2344 56.3125 41.1328C55.9531 41.0234 55.5586 40.9688 55.1289 40.9688C54.793 40.9688 54.5 41.0117 54.25 41.0977C54 41.1758 53.7891 41.2891 53.6172 41.4375C53.4531 41.5781 53.3281 41.75 53.2422 41.9531C53.1641 42.1562 53.125 42.3711 53.125 42.5977C53.125 42.9336 53.2148 43.2266 53.3945 43.4766C53.582 43.7188 53.8281 43.9375 54.1328 44.1328C54.4453 44.3203 54.7969 44.5 55.1875 44.6719C55.5781 44.8359 55.9766 45.0117 56.3828 45.1992C56.7891 45.3867 57.1875 45.6016 57.5781 45.8438C57.9688 46.0781 58.3164 46.3633 58.6211 46.6992C58.9258 47.0273 59.1719 47.418 59.3594 47.8711C59.5469 48.3164 59.6406 48.8438 59.6406 49.4531ZM72.3906 48.2695C72.3906 49.1602 72.2734 49.9727 72.0391 50.707C71.8047 51.4414 71.4492 52.0742 70.9727 52.6055C70.4961 53.1367 69.8984 53.5469 69.1797 53.8359C68.4609 54.125 67.6211 54.2695 66.6602 54.2695C65.7305 54.2695 64.9219 54.1406 64.2344 53.8828C63.5469 53.625 62.9766 53.25 62.5234 52.7578C62.0703 52.2656 61.7344 51.6602 61.5156 50.9414C61.2969 50.2227 61.1875 49.4023 61.1875 48.4805C61.1875 47.5898 61.3047 46.7773 61.5391 46.043C61.7812 45.3008 62.1406 44.668 62.6172 44.1445C63.0938 43.6133 63.6875 43.2031 64.3984 42.9141C65.1172 42.625 65.957 42.4805 66.918 42.4805C67.8555 42.4805 68.668 42.6094 69.3555 42.8672C70.043 43.1172 70.6094 43.4883 71.0547 43.9805C71.5078 44.4727 71.8438 45.0781 72.0625 45.7969C72.2812 46.5156 72.3906 47.3398 72.3906 48.2695ZM69.3555 48.3867C69.3555 47.8711 69.3125 47.3984 69.2266 46.9688C69.1484 46.5312 69.0117 46.1523 68.8164 45.832C68.6211 45.5117 68.3594 45.2617 68.0312 45.082C67.7109 44.9023 67.3047 44.8125 66.8125 44.8125C66.375 44.8125 65.9922 44.8945 65.6641 45.0586C65.3359 45.2148 65.0664 45.4492 64.8555 45.7617C64.6445 46.0664 64.4844 46.4375 64.375 46.875C64.2734 47.3047 64.2227 47.7969 64.2227 48.3516C64.2227 48.8672 64.2656 49.3438 64.3516 49.7812C64.4375 50.2109 64.5742 50.5859 64.7617 50.9062C64.957 51.2266 65.2188 51.4766 65.5469 51.6562C65.875 51.8281 66.2812 51.9141 66.7656 51.9141C67.2109 51.9141 67.5977 51.8359 67.9258 51.6797C68.2539 51.5156 68.5234 51.2812 68.7344 50.9766C68.9453 50.6719 69.1016 50.3047 69.2031 49.875C69.3047 49.4375 69.3555 48.9414 69.3555 48.3867ZM82.6445 51.9375C82.6445 52.1406 82.6367 52.3125 82.6211 52.4531C82.6133 52.5859 82.5977 52.6992 82.5742 52.793C82.5586 52.8867 82.5352 52.9648 82.5039 53.0273C82.4805 53.082 82.4219 53.1562 82.3281 53.25C82.2344 53.3359 82.0742 53.4453 81.8477 53.5781C81.6211 53.7031 81.3633 53.8164 81.0742 53.918C80.7852 54.0195 80.4688 54.1016 80.125 54.1641C79.7891 54.2266 79.4414 54.2578 79.082 54.2578C78.2773 54.2578 77.5625 54.1328 76.9375 53.8828C76.3203 53.6328 75.8008 53.2656 75.3789 52.7812C74.957 52.2891 74.6367 51.6914 74.418 50.9883C74.207 50.2852 74.1016 49.4805 74.1016 48.5742C74.1016 47.5273 74.2305 46.625 74.4883 45.8672C74.7539 45.1016 75.1211 44.4688 75.5898 43.9688C76.0586 43.4688 76.6133 43.0977 77.2539 42.8555C77.8945 42.6133 78.5977 42.4922 79.3633 42.4922C79.6758 42.4922 79.9805 42.5195 80.2773 42.5742C80.582 42.6289 80.8633 42.7031 81.1211 42.7969C81.3867 42.8906 81.6211 42.9961 81.8242 43.1133C82.0352 43.2305 82.1836 43.332 82.2695 43.418C82.3555 43.5039 82.4141 43.5781 82.4453 43.6406C82.4844 43.6953 82.5117 43.7695 82.5273 43.8633C82.5508 43.957 82.5664 44.0742 82.5742 44.2148C82.5898 44.3477 82.5977 44.5117 82.5977 44.707C82.5977 45.1602 82.5586 45.4805 82.4805 45.668C82.4023 45.8477 82.3008 45.9375 82.1758 45.9375C82.043 45.9375 81.9023 45.8828 81.7539 45.7734C81.6055 45.6641 81.4297 45.543 81.2266 45.4102C81.0234 45.2773 80.7812 45.1562 80.5 45.0469C80.2188 44.9375 79.8828 44.8828 79.4922 44.8828C78.7266 44.8828 78.1406 45.1797 77.7344 45.7734C77.3281 46.3594 77.125 47.2227 77.125 48.3633C77.125 48.9258 77.1758 49.4219 77.2773 49.8516C77.3789 50.2812 77.5273 50.6406 77.7227 50.9297C77.9258 51.2188 78.1758 51.4375 78.4727 51.5859C78.7773 51.7266 79.1289 51.7969 79.5273 51.7969C79.9336 51.7969 80.2812 51.7383 80.5703 51.6211C80.8672 51.4961 81.125 51.3594 81.3438 51.2109C81.5625 51.0625 81.7461 50.9297 81.8945 50.8125C82.043 50.6875 82.168 50.625 82.2695 50.625C82.3398 50.625 82.3984 50.6445 82.4453 50.6836C82.4922 50.7227 82.5273 50.7969 82.5508 50.9062C82.582 51.0078 82.6055 51.1406 82.6211 51.3047C82.6367 51.4688 82.6445 51.6797 82.6445 51.9375ZM87.7422 53.6016C87.7422 53.6797 87.7188 53.75 87.6719 53.8125C87.625 53.8672 87.543 53.9141 87.4258 53.9531C87.3164 53.9922 87.168 54.0195 86.9805 54.0352C86.793 54.0586 86.5547 54.0703 86.2656 54.0703C85.9766 54.0703 85.7383 54.0586 85.5508 54.0352C85.3633 54.0195 85.2109 53.9922 85.0938 53.9531C84.9844 53.9141 84.9062 53.8672 84.8594 53.8125C84.8125 53.75 84.7891 53.6797 84.7891 53.6016V43.1719C84.7891 43.0938 84.8125 43.0273 84.8594 42.9727C84.9062 42.9102 84.9844 42.8594 85.0938 42.8203C85.2109 42.7734 85.3633 42.7383 85.5508 42.7148C85.7383 42.6914 85.9766 42.6797 86.2656 42.6797C86.5547 42.6797 86.793 42.6914 86.9805 42.7148C87.168 42.7383 87.3164 42.7734 87.4258 42.8203C87.543 42.8594 87.625 42.9102 87.6719 42.9727C87.7188 43.0273 87.7422 43.0938 87.7422 43.1719V53.6016ZM87.9648 39.6094C87.9648 40.2031 87.8438 40.6133 87.6016 40.8398C87.3594 41.0664 86.9102 41.1797 86.2539 41.1797C85.5898 41.1797 85.1406 41.0703 84.9062 40.8516C84.6797 40.6328 84.5664 40.2383 84.5664 39.668C84.5664 39.0742 84.6836 38.6641 84.918 38.4375C85.1602 38.2031 85.6133 38.0859 86.2773 38.0859C86.9336 38.0859 87.3789 38.1992 87.6133 38.4258C87.8477 38.6445 87.9648 39.0391 87.9648 39.6094ZM99.6016 53.6367C99.6016 53.7461 99.5625 53.832 99.4844 53.8945C99.4062 53.957 99.2812 54 99.1094 54.0234C98.9453 54.0547 98.6992 54.0703 98.3711 54.0703C98.0195 54.0703 97.7617 54.0547 97.5977 54.0234C97.4414 54 97.3281 53.957 97.2578 53.8945C97.1953 53.832 97.1641 53.7461 97.1641 53.6367V52.8047C96.7344 53.2656 96.2422 53.625 95.6875 53.8828C95.1406 54.1406 94.5312 54.2695 93.8594 54.2695C93.3047 54.2695 92.793 54.1953 92.3242 54.0469C91.8633 53.9062 91.4609 53.6953 91.1172 53.4141C90.7812 53.125 90.5195 52.7695 90.332 52.3477C90.1445 51.9258 90.0508 51.4336 90.0508 50.8711C90.0508 50.2617 90.168 49.7344 90.4023 49.2891C90.6445 48.8359 91 48.4648 91.4688 48.1758C91.9453 47.8789 92.5352 47.6602 93.2383 47.5195C93.9414 47.3789 94.7578 47.3086 95.6875 47.3086H96.707V46.6758C96.707 46.3477 96.6719 46.0625 96.6016 45.8203C96.5391 45.5703 96.4297 45.3633 96.2734 45.1992C96.125 45.0352 95.9219 44.9141 95.6641 44.8359C95.4141 44.7578 95.1016 44.7188 94.7266 44.7188C94.2344 44.7188 93.793 44.7734 93.4023 44.8828C93.0195 44.9922 92.6797 45.1133 92.3828 45.2461C92.0859 45.3789 91.8359 45.5 91.6328 45.6094C91.4375 45.7188 91.2773 45.7734 91.1523 45.7734C91.0664 45.7734 90.9883 45.7461 90.918 45.6914C90.8555 45.6367 90.8008 45.5586 90.7539 45.457C90.7148 45.3555 90.6836 45.2305 90.6602 45.082C90.6367 44.9336 90.625 44.7695 90.625 44.5898C90.625 44.3477 90.6445 44.1562 90.6836 44.0156C90.7227 43.875 90.7969 43.75 90.9062 43.6406C91.0156 43.5234 91.207 43.3984 91.4805 43.2656C91.7539 43.125 92.0742 42.9961 92.4414 42.8789C92.8086 42.7617 93.207 42.668 93.6367 42.5977C94.0742 42.5195 94.5234 42.4805 94.9844 42.4805C95.8047 42.4805 96.5039 42.5625 97.082 42.7266C97.668 42.8828 98.1484 43.1289 98.5234 43.4648C98.8984 43.793 99.1719 44.2188 99.3438 44.7422C99.5156 45.2656 99.6016 45.8867 99.6016 46.6055V53.6367ZM96.707 49.1602H95.582C95.1055 49.1602 94.6992 49.1953 94.3633 49.2656C94.0273 49.3359 93.7539 49.4414 93.543 49.582C93.332 49.7227 93.1758 49.8945 93.0742 50.0977C92.9805 50.293 92.9336 50.5195 92.9336 50.7773C92.9336 51.2148 93.0703 51.5586 93.3438 51.8086C93.625 52.0586 94.0117 52.1836 94.5039 52.1836C94.918 52.1836 95.2969 52.0781 95.6406 51.8672C95.9922 51.6562 96.3477 51.3477 96.707 50.9414V49.1602ZM105.508 53.6016C105.508 53.6797 105.484 53.75 105.438 53.8125C105.391 53.8672 105.309 53.9141 105.191 53.9531C105.082 53.9922 104.934 54.0195 104.746 54.0352C104.559 54.0586 104.32 54.0703 104.031 54.0703C103.742 54.0703 103.504 54.0586 103.316 54.0352C103.129 54.0195 102.977 53.9922 102.859 53.9531C102.75 53.9141 102.672 53.8672 102.625 53.8125C102.578 53.75 102.555 53.6797 102.555 53.6016V38.1914C102.555 38.1133 102.578 38.043 102.625 37.9805C102.672 37.918 102.75 37.8672 102.859 37.8281C102.977 37.7812 103.129 37.7461 103.316 37.7227C103.504 37.6992 103.742 37.6875 104.031 37.6875C104.32 37.6875 104.559 37.6992 104.746 37.7227C104.934 37.7461 105.082 37.7812 105.191 37.8281C105.309 37.8672 105.391 37.918 105.438 37.9805C105.484 38.043 105.508 38.1133 105.508 38.1914V53.6016ZM120.648 53.4609C120.578 53.5938 120.504 53.7031 120.426 53.7891C120.348 53.8672 120.234 53.9297 120.086 53.9766C119.938 54.0156 119.738 54.0391 119.488 54.0469C119.246 54.0625 118.926 54.0703 118.527 54.0703C118.066 54.0703 117.699 54.0625 117.426 54.0469C117.152 54.0391 116.945 54.0156 116.805 53.9766C116.664 53.9297 116.566 53.8633 116.512 53.7773C116.465 53.6914 116.434 53.5742 116.418 53.4258L114.566 39.7266C114.543 39.5156 114.535 39.3477 114.543 39.2227C114.551 39.0898 114.605 38.9922 114.707 38.9297C114.809 38.8594 114.965 38.8164 115.176 38.8008C115.395 38.7773 115.695 38.7656 116.078 38.7656C116.461 38.7656 116.758 38.7734 116.969 38.7891C117.188 38.8047 117.352 38.8359 117.461 38.8828C117.578 38.9219 117.652 38.9805 117.684 39.0586C117.715 39.1367 117.738 39.2383 117.754 39.3633L119.043 51.0352H119.066L124.961 39.3164C125.016 39.207 125.078 39.1172 125.148 39.0469C125.219 38.9688 125.316 38.9102 125.441 38.8711C125.574 38.832 125.746 38.8047 125.957 38.7891C126.176 38.7734 126.461 38.7656 126.812 38.7656C127.188 38.7656 127.48 38.7773 127.691 38.8008C127.902 38.8242 128.043 38.8789 128.113 38.9648C128.184 39.0508 128.191 39.1797 128.137 39.3516C128.082 39.5156 127.98 39.7383 127.832 40.0195L120.648 53.4609ZM133.059 39.6328C133.004 39.9219 132.93 40.168 132.836 40.3711C132.742 40.5664 132.617 40.7266 132.461 40.8516C132.305 40.9688 132.113 41.0547 131.887 41.1094C131.66 41.1562 131.379 41.1797 131.043 41.1797C130.715 41.1797 130.445 41.1562 130.234 41.1094C130.031 41.0547 129.875 40.9688 129.766 40.8516C129.664 40.7266 129.605 40.5664 129.59 40.3711C129.574 40.168 129.598 39.9219 129.66 39.6328C129.715 39.3516 129.789 39.1133 129.883 38.918C129.977 38.7227 130.102 38.5625 130.258 38.4375C130.414 38.3125 130.605 38.2227 130.832 38.168C131.059 38.1133 131.34 38.0859 131.676 38.0859C132.004 38.0859 132.27 38.1133 132.473 38.168C132.684 38.2227 132.84 38.3125 132.941 38.4375C133.051 38.5625 133.109 38.7227 133.117 38.918C133.133 39.1133 133.113 39.3516 133.059 39.6328ZM130.035 53.6016C130.02 53.6797 129.98 53.75 129.918 53.8125C129.863 53.8672 129.773 53.9141 129.648 53.9531C129.531 53.9922 129.375 54.0195 129.18 54.0352C128.984 54.0586 128.746 54.0703 128.465 54.0703C128.176 54.0703 127.938 54.0586 127.75 54.0352C127.57 54.0195 127.426 53.9922 127.316 53.9531C127.215 53.9141 127.148 53.8672 127.117 53.8125C127.086 53.75 127.078 53.6797 127.094 53.6016L129.168 43.1719C129.184 43.0938 129.219 43.0273 129.273 42.9727C129.336 42.9102 129.426 42.8594 129.543 42.8203C129.668 42.7734 129.824 42.7383 130.012 42.7148C130.207 42.6914 130.449 42.6797 130.738 42.6797C131.027 42.6797 131.262 42.6914 131.441 42.7148C131.629 42.7383 131.773 42.7734 131.875 42.8203C131.984 42.8594 132.055 42.9102 132.086 42.9727C132.117 43.0273 132.125 43.0938 132.109 43.1719L130.035 53.6016ZM141.613 43.6055C141.613 43.6992 141.598 43.8398 141.566 44.0273C141.543 44.207 141.504 44.3906 141.449 44.5781C141.395 44.7656 141.328 44.9297 141.25 45.0703C141.18 45.2031 141.098 45.2695 141.004 45.2695C140.902 45.2695 140.781 45.2344 140.641 45.1641C140.508 45.0859 140.344 45.0039 140.148 44.918C139.953 44.8242 139.723 44.7422 139.457 44.6719C139.199 44.6016 138.895 44.5664 138.543 44.5664C138.27 44.5664 138.023 44.6016 137.805 44.6719C137.594 44.7422 137.418 44.8398 137.277 44.9648C137.137 45.082 137.027 45.2227 136.949 45.3867C136.879 45.5508 136.844 45.7266 136.844 45.9141C136.844 46.1562 136.941 46.3594 137.137 46.5234C137.34 46.6875 137.59 46.8438 137.887 46.9922C138.184 47.1328 138.504 47.2812 138.848 47.4375C139.191 47.5938 139.512 47.7891 139.809 48.0234C140.105 48.2578 140.352 48.543 140.547 48.8789C140.742 49.2148 140.84 49.6367 140.84 50.1445C140.84 50.7383 140.727 51.2891 140.5 51.7969C140.273 52.2969 139.941 52.7305 139.504 53.0977C139.074 53.4648 138.547 53.7539 137.922 53.9648C137.305 54.168 136.605 54.2695 135.824 54.2695C135.449 54.2695 135.09 54.2422 134.746 54.1875C134.41 54.1328 134.105 54.0664 133.832 53.9883C133.566 53.9102 133.34 53.8203 133.152 53.7188C132.965 53.6172 132.824 53.5234 132.73 53.4375C132.668 53.375 132.621 53.3086 132.59 53.2383C132.566 53.168 132.555 53.0781 132.555 52.9688C132.555 52.8984 132.559 52.8086 132.566 52.6992C132.582 52.5898 132.602 52.4688 132.625 52.3359C132.656 52.2031 132.688 52.0703 132.719 51.9375C132.758 51.8047 132.801 51.6836 132.848 51.5742C132.895 51.4648 132.945 51.3789 133 51.3164C133.055 51.2461 133.113 51.2109 133.176 51.2109C133.285 51.2109 133.406 51.2578 133.539 51.3516C133.672 51.4453 133.844 51.5508 134.055 51.668C134.266 51.7773 134.523 51.8828 134.828 51.9844C135.141 52.0781 135.527 52.125 135.988 52.125C136.309 52.125 136.586 52.0898 136.82 52.0195C137.062 51.9414 137.262 51.8359 137.418 51.7031C137.574 51.5703 137.688 51.418 137.758 51.2461C137.836 51.0742 137.875 50.8906 137.875 50.6953C137.875 50.4219 137.777 50.1992 137.582 50.0273C137.395 49.8555 137.156 49.6953 136.867 49.5469C136.578 49.3984 136.262 49.2461 135.918 49.0898C135.582 48.9336 135.27 48.7422 134.98 48.5156C134.691 48.2891 134.449 48.0078 134.254 47.6719C134.066 47.3359 133.973 46.9141 133.973 46.4062C133.973 45.8516 134.078 45.3359 134.289 44.8594C134.5 44.3828 134.809 43.9688 135.215 43.6172C135.621 43.2578 136.113 42.9805 136.691 42.7852C137.27 42.582 137.926 42.4805 138.66 42.4805C138.988 42.4805 139.305 42.5039 139.609 42.5508C139.922 42.5898 140.199 42.6445 140.441 42.7148C140.691 42.7852 140.906 42.8633 141.086 42.9492C141.273 43.0352 141.406 43.1211 141.484 43.207C141.57 43.2852 141.613 43.418 141.613 43.6055ZM150.402 43.2539C150.402 43.332 150.395 43.4336 150.379 43.5586C150.363 43.6758 150.34 43.8047 150.309 43.9453C150.285 44.0859 150.25 44.2266 150.203 44.3672C150.156 44.5078 150.102 44.6367 150.039 44.7539C149.984 44.8633 149.918 44.957 149.84 45.0352C149.77 45.1055 149.691 45.1406 149.605 45.1406H147.32L146.336 50.0508C146.312 50.168 146.289 50.3086 146.266 50.4727C146.25 50.6289 146.242 50.7578 146.242 50.8594C146.242 51.1719 146.316 51.4023 146.465 51.5508C146.613 51.6914 146.848 51.7617 147.168 51.7617C147.355 51.7617 147.516 51.75 147.648 51.7266C147.781 51.6953 147.895 51.6641 147.988 51.6328C148.09 51.5938 148.176 51.5625 148.246 51.5391C148.316 51.5078 148.383 51.4922 148.445 51.4922C148.508 51.4922 148.559 51.5234 148.598 51.5859C148.645 51.6406 148.668 51.7344 148.668 51.8672C148.668 52.0156 148.652 52.1836 148.621 52.3711C148.59 52.5586 148.547 52.7422 148.492 52.9219C148.445 53.0938 148.391 53.2539 148.328 53.4023C148.266 53.543 148.199 53.6484 148.129 53.7188C148.059 53.7891 147.953 53.8555 147.812 53.918C147.672 53.9805 147.504 54.0352 147.309 54.082C147.121 54.1289 146.918 54.1641 146.699 54.1875C146.48 54.2188 146.262 54.2344 146.043 54.2344C145.574 54.2344 145.16 54.1836 144.801 54.082C144.449 53.9883 144.152 53.8359 143.91 53.625C143.668 53.4141 143.484 53.1445 143.359 52.8164C143.242 52.4883 143.184 52.0898 143.184 51.6211C143.184 51.5352 143.188 51.4375 143.195 51.3281C143.203 51.2109 143.215 51.0898 143.23 50.9648C143.254 50.8398 143.273 50.7148 143.289 50.5898C143.312 50.457 143.336 50.3398 143.359 50.2383L144.379 45.1406H143.113C143.012 45.1406 142.938 45.1094 142.891 45.0469C142.844 44.9766 142.82 44.8477 142.82 44.6602C142.82 44.5273 142.832 44.3555 142.855 44.1445C142.887 43.9258 142.934 43.7148 142.996 43.5117C143.059 43.3008 143.141 43.1211 143.242 42.9727C143.344 42.8242 143.465 42.75 143.605 42.75H144.859L145.328 40.418C145.344 40.3398 145.379 40.2695 145.434 40.207C145.496 40.1445 145.586 40.0938 145.703 40.0547C145.828 40.0078 145.984 39.9766 146.172 39.9609C146.367 39.9375 146.609 39.9258 146.898 39.9258C147.18 39.9258 147.414 39.9375 147.602 39.9609C147.789 39.9766 147.934 40.0078 148.035 40.0547C148.137 40.0938 148.203 40.1445 148.234 40.207C148.273 40.2695 148.285 40.3398 148.27 40.418L147.801 42.75H150.062C150.195 42.75 150.285 42.793 150.332 42.8789C150.379 42.9648 150.402 43.0898 150.402 43.2539ZM159.93 53.6133C159.898 53.7773 159.773 53.8945 159.555 53.9648C159.344 54.0352 159 54.0703 158.523 54.0703C158.281 54.0703 158.082 54.0625 157.926 54.0469C157.777 54.0312 157.656 54.0078 157.562 53.9766C157.469 53.9375 157.406 53.8906 157.375 53.8359C157.352 53.7734 157.348 53.6992 157.363 53.6133L157.691 51.9375C157.574 52.1875 157.387 52.4531 157.129 52.7344C156.871 53.0078 156.566 53.2578 156.215 53.4844C155.863 53.7109 155.473 53.8984 155.043 54.0469C154.621 54.1953 154.184 54.2695 153.73 54.2695C153.105 54.2695 152.586 54.1602 152.172 53.9414C151.758 53.7227 151.426 53.4297 151.176 53.0625C150.926 52.6875 150.746 52.2617 150.637 51.7852C150.535 51.3086 150.484 50.8086 150.484 50.2852C150.484 49.793 150.531 49.2578 150.625 48.6797C150.719 48.0938 150.863 47.5117 151.059 46.9336C151.254 46.3555 151.504 45.8008 151.809 45.2695C152.113 44.7305 152.477 44.2539 152.898 43.8398C153.328 43.4258 153.816 43.0977 154.363 42.8555C154.918 42.6055 155.543 42.4805 156.238 42.4805C156.887 42.4805 157.461 42.6172 157.961 42.8906C158.461 43.1562 158.898 43.5469 159.273 44.0625L159.461 43.1367C159.492 42.9727 159.613 42.8555 159.824 42.7852C160.043 42.7148 160.391 42.6797 160.867 42.6797C161.102 42.6797 161.297 42.6914 161.453 42.7148C161.609 42.7305 161.73 42.7578 161.816 42.7969C161.91 42.8281 161.973 42.875 162.004 42.9375C162.035 42.9922 162.043 43.0586 162.027 43.1367L159.93 53.6133ZM158.477 46.2773C158.203 45.8477 157.898 45.5273 157.562 45.3164C157.234 45.0977 156.852 44.9883 156.414 44.9883C156.086 44.9883 155.785 45.0664 155.512 45.2227C155.238 45.3789 154.996 45.5898 154.785 45.8555C154.574 46.1133 154.387 46.4141 154.223 46.7578C154.066 47.1016 153.934 47.4609 153.824 47.8359C153.723 48.2031 153.645 48.5781 153.59 48.9609C153.543 49.3359 153.52 49.6836 153.52 50.0039C153.52 50.2383 153.535 50.4609 153.566 50.6719C153.605 50.8828 153.672 51.0703 153.766 51.2344C153.859 51.3984 153.984 51.5312 154.141 51.6328C154.297 51.7266 154.496 51.7734 154.738 51.7734C155.082 51.7734 155.434 51.6719 155.793 51.4688C156.152 51.2578 156.488 50.9766 156.801 50.625C157.113 50.2656 157.387 49.8516 157.621 49.3828C157.863 48.9062 158.039 48.3984 158.148 47.8594L158.477 46.2773Z" fill="#164874"/>
</svg>
